<?xml version="1.0"?>
<svg xmlns="http://www.w3.org/2000/svg" xmlns:xlink="http://www.w3.org/1999/xlink" xmlns:svgjs="http://svgjs.com/svgjs" version="1.1" width="512" height="512" x="0" y="0" viewBox="0 0 512 512" style="enable-background:new 0 0 512 512" xml:space="preserve" class=""><g><g xmlns="http://www.w3.org/2000/svg"><path d="m128.324 182.344c4.143 0 7.5-3.357 7.5-7.5v-53.465c0-4.143-3.357-7.5-7.5-7.5s-7.5 3.357-7.5 7.5v53.465c0 4.142 3.357 7.5 7.5 7.5z" fill="#000000" data-original="#000000" style=""/><path d="m383.676 182.344c4.143 0 7.5-3.357 7.5-7.5v-53.465c0-4.143-3.357-7.5-7.5-7.5s-7.5 3.357-7.5 7.5v53.465c0 4.142 3.358 7.5 7.5 7.5z" fill="#000000" data-original="#000000" style=""/><path d="m243.766 132.147h24.467c6.509 0 11.804-5.295 11.804-11.804v-15.035h15.035c6.509 0 11.804-5.295 11.804-11.804v-24.465c0-6.509-5.295-11.804-11.804-11.804h-15.035v-15.035c0-6.509-5.295-11.804-11.804-11.804h-24.467c-6.508 0-11.803 5.295-11.803 11.804v15.035h-15.036c-6.508 0-11.803 5.295-11.803 11.804v24.466c0 6.509 5.295 11.804 11.803 11.804h15.036v15.035c0 6.509 5.295 11.803 11.803 11.803zm-23.641-41.838v-18.074h15.035c6.509 0 11.804-5.295 11.804-11.803v-15.036h18.073v15.036c0 6.508 5.295 11.803 11.803 11.803h15.036v18.073h-15.036c-6.508 0-11.803 5.295-11.803 11.803v15.036h-18.073v-15.036c0-6.508-5.295-11.803-11.804-11.803h-15.035z" fill="#000000" data-original="#000000" style=""/><path d="m475.137 497h-14.625l.141-.176c2.592-3.23 2.075-7.951-1.155-10.544-3.232-2.592-7.952-2.074-10.544 1.155l-3.21 4.001-5.481-9.069c-2.143-3.544-6.753-4.682-10.299-2.539-3.545 2.143-4.682 6.754-2.539 10.299l4.154 6.873h-22.954v-286.147h17.525c14.122 0 25.61-11.488 25.61-25.61v-74.263c0-14.122-11.488-25.61-25.61-25.61h-88.982c.068-1.358.102-2.724.102-4.099 0-13.758-3.515-27.367-10.165-39.358-2.008-3.623-6.574-4.933-10.196-2.921-3.622 2.009-4.93 6.573-2.921 10.196 5.418 9.771 8.282 20.864 8.282 32.083 0 36.699-29.886 66.272-66.271 66.272-36.428 0-66.271-29.621-66.271-66.272 0-36.542 29.73-66.271 66.272-66.271 14.729 0 28.681 4.743 40.348 13.716 3.284 2.523 7.991 1.91 10.518-1.373 2.525-3.283 1.91-7.992-1.373-10.518-14.314-11.007-31.428-16.825-49.493-16.825-44.813 0-81.271 36.458-81.271 81.271 0 1.375.035 2.741.102 4.099h-88.982c-14.121 0-25.61 11.488-25.61 25.61v74.262c0 14.122 11.489 25.61 25.61 25.61h17.525v75.231c0 4.143 3.357 7.5 7.5 7.5s7.5-3.357 7.5-7.5v-75.231h275.251v286.148h-44.701v-40.649c0-4.143-3.357-7.5-7.5-7.5s-7.5 3.357-7.5 7.5v40.649h-70.424v-111.286h66.612c2.103 0 3.812 1.711 3.812 3.813v36.836c0 4.143 3.357 7.5 7.5 7.5s7.5-3.357 7.5-7.5v-36.836c0-10.374-8.439-18.813-18.812-18.813h-148.224c-10.374 0-18.813 8.439-18.813 18.813v107.473h-44.7v-180.929c0-4.143-3.357-7.5-7.5-7.5s-7.5 3.357-7.5 7.5v180.929h-22.956l4.154-6.874c2.143-3.545 1.005-8.155-2.54-10.298-3.543-2.143-8.155-1.005-10.298 2.54l-5.48 9.067-3.21-4c-2.594-3.229-7.312-3.746-10.544-1.155-3.23 2.593-3.747 7.313-1.155 10.544l.141.176h-14.624c-4.143 0-7.5 3.357-7.5 7.5s3.357 7.5 7.5 7.5h438.274c4.143 0 7.5-3.357 7.5-7.5s-3.357-7.5-7.5-7.5zm-399.898-311.758v-74.262c0-5.851 4.76-10.61 10.61-10.61h91.145c1.704 7.05 4.33 13.744 7.742 19.947-.142 1.004-.048-2.064-.075 54.527 0 4.143 3.357 7.5 7.5 7.5s7.5-3.357 7.5-7.5v-35.049c12.929 12.451 29.959 20.67 48.838 22.406v12.643c0 4.143 3.357 7.5 7.5 7.5s7.5-3.357 7.5-7.5v-12.644c18.879-1.735 35.91-9.955 48.839-22.406v35.05c0 4.143 3.357 7.5 7.5 7.5s7.5-3.357 7.5-7.5c-.027-56.639.067-53.522-.075-54.528 3.412-6.203 6.037-12.896 7.741-19.946h91.146c5.851 0 10.61 4.76 10.61 10.61v74.262c0 5.851-4.76 10.61-10.61 10.61h-24.948c-.026 0-.052-.001-.077-.001h-290.25c-.026 0-.052.001-.077.001h-24.949c-5.85.001-10.61-4.759-10.61-10.61zm102.836 204.285c0-2.103 1.711-3.813 3.813-3.813h66.612v111.286h-70.425z" fill="#000000" data-original="#000000" style=""/><path d="m160.575 259.715h24.041c4.143 0 7.5-3.357 7.5-7.5s-3.357-7.5-7.5-7.5h-24.041c-4.143 0-7.5 3.357-7.5 7.5s3.357 7.5 7.5 7.5z" fill="#000000" data-original="#000000" style=""/><path d="m243.979 259.715h24.041c4.143 0 7.5-3.357 7.5-7.5s-3.357-7.5-7.5-7.5h-24.041c-4.143 0-7.5 3.357-7.5 7.5s3.357 7.5 7.5 7.5z" fill="#000000" data-original="#000000" style=""/><path d="m327.383 259.715h24.041c4.143 0 7.5-3.357 7.5-7.5s-3.357-7.5-7.5-7.5h-24.041c-4.143 0-7.5 3.357-7.5 7.5s3.358 7.5 7.5 7.5z" fill="#000000" data-original="#000000" style=""/><path d="m160.575 308.578h24.041c4.143 0 7.5-3.357 7.5-7.5s-3.357-7.5-7.5-7.5h-24.041c-4.143 0-7.5 3.357-7.5 7.5s3.357 7.5 7.5 7.5z" fill="#000000" data-original="#000000" style=""/><path d="m243.979 308.578h24.041c4.143 0 7.5-3.357 7.5-7.5s-3.357-7.5-7.5-7.5h-24.041c-4.143 0-7.5 3.357-7.5 7.5s3.357 7.5 7.5 7.5z" fill="#000000" data-original="#000000" style=""/><path d="m327.383 308.578h24.041c4.143 0 7.5-3.357 7.5-7.5s-3.357-7.5-7.5-7.5h-24.041c-4.143 0-7.5 3.357-7.5 7.5s3.358 7.5 7.5 7.5z" fill="#000000" data-original="#000000" style=""/></g></g></svg>
